<?xml version="1.0" standalone="no"?>
<!DOCTYPE svg PUBLIC "-//W3C//DTD SVG 20010904//EN"
 "http://www.w3.org/TR/2001/REC-SVG-20010904/DTD/svg10.dtd">
<svg version="1.0" xmlns="http://www.w3.org/2000/svg"
 width="500.000000pt" height="500.000000pt" viewBox="0 0 500.000000 500.000000"
 preserveAspectRatio="xMidYMid meet">

<g transform="translate(0.000000,500.000000) scale(0.100000,-0.100000)"
fill="#000000" stroke="none">
<path d="M2264 3125 c-208 -31 -408 -92 -576 -176 -106 -53 -131 -72 -45 -35
56 25 171 56 282 78 104 19 388 17 497 -5 462 -93 777 -382 778 -714 0 -157
-52 -283 -167 -407 -127 -136 -310 -233 -492 -262 l-43 -7 36 47 c81 106 69
211 -37 323 -182 192 -572 304 -1052 302 l-130 -1 55 -15 c270 -74 339 -96
468 -149 257 -106 422 -252 422 -374 0 -78 -58 -142 -148 -165 l-47 -12 55
-12 c164 -35 442 -38 620 -7 480 85 824 347 895 682 30 139 12 267 -57 404
-35 70 -61 103 -143 186 -138 138 -276 217 -487 278 -189 54 -473 71 -684 41z"/>
<path d="M1695 2595 c-324 -37 -637 -111 -905 -215 l-55 -21 145 6 c80 4 159
8 175 10 17 3 172 12 345 21 424 22 700 13 925 -32 280 -56 486 -162 580 -299
32 -46 39 -66 44 -122 l6 -67 42 48 c69 78 88 127 88 226 0 75 -3 91 -27 132
-83 139 -282 242 -583 299 -143 28 -593 36 -780 14z"/>
</g>
</svg>
